<svg version="1.1" xmlns="http://www.w3.org/2000/svg" viewBox="0 0 1365.8521918427177 1404.278573873679" width="4097.556575528153" height="4212.835721621037" filter="invert(93%) hue-rotate(180deg)">
  <!-- svg-source:excalidraw -->
  
  <defs>
    <style class="style-fonts">
      @font-face {
        font-family: "Virgil";
        src: url("https://excalidraw.com/Virgil.woff2");
      }
      @font-face {
        font-family: "Cascadia";
        src: url("https://excalidraw.com/Cascadia.woff2");
      }
      @font-face {
        font-family: "Assistant";
        src: url("https://app.excalidraw.com//dist/excalidraw-assets/Assistant-Regular.woff2");
      }
    </style>
    
  </defs>
  <rect x="0" y="0" width="1365.8521918427177" height="1404.278573873679" fill="#ffffff"></rect><g stroke-linecap="round" transform="translate(546.2971736659524 42.43512133608351) rotate(0 192.96648963654684 61.4474296607998)"><path d="M30.72 0 C109.58 0, 188.43 0, 355.21 0 C375.69 0, 385.93 10.24, 385.93 30.72 C385.93 50.11, 385.93 69.49, 385.93 92.17 C385.93 112.65, 375.69 122.89, 355.21 122.89 C240.19 122.89, 125.16 122.89, 30.72 122.89 C10.24 122.89, 0 112.65, 0 92.17 C0 75.36, 0 58.54, 0 30.72 C0 10.24, 10.24 0, 30.72 0" stroke="none" stroke-width="0" fill="#1e1e1e"></path><path d="M30.72 0 C103.49 0, 176.26 0, 355.21 0 M30.72 0 C104.51 0, 178.3 0, 355.21 0 M355.21 0 C375.69 0, 385.93 10.24, 385.93 30.72 M355.21 0 C375.69 0, 385.93 10.24, 385.93 30.72 M385.93 30.72 C385.93 45.32, 385.93 59.91, 385.93 92.17 M385.93 30.72 C385.93 52.81, 385.93 74.9, 385.93 92.17 M385.93 92.17 C385.93 112.65, 375.69 122.89, 355.21 122.89 M385.93 92.17 C385.93 112.65, 375.69 122.89, 355.21 122.89 M355.21 122.89 C263.76 122.89, 172.31 122.89, 30.72 122.89 M355.21 122.89 C243.98 122.89, 132.75 122.89, 30.72 122.89 M30.72 122.89 C10.24 122.89, 0 112.65, 0 92.17 M30.72 122.89 C10.24 122.89, 0 112.65, 0 92.17 M0 92.17 C0 76.92, 0 61.68, 0 30.72 M0 92.17 C0 77.59, 0 63.01, 0 30.72 M0 30.72 C0 10.24, 10.24 0, 30.72 0 M0 30.72 C0 10.24, 10.24 0, 30.72 0" stroke="#1e1e1e" stroke-width="2" fill="none"></path></g><g stroke-linecap="round" transform="translate(546.2971736659524 408.9636491373451) rotate(0 192.96648963654684 61.4474296607998)"><path d="M30.72 0 C152.52 0, 274.32 0, 355.21 0 C375.69 0, 385.93 10.24, 385.93 30.72 C385.93 53.66, 385.93 76.6, 385.93 92.17 C385.93 112.65, 375.69 122.89, 355.21 122.89 C237.09 122.89, 118.97 122.89, 30.72 122.89 C10.24 122.89, 0 112.65, 0 92.17 C0 67.63, 0 43.09, 0 30.72 C0 10.24, 10.24 0, 30.72 0" stroke="none" stroke-width="0" fill="#1e1e1e"></path><path d="M30.72 0 C115.56 0, 200.4 0, 355.21 0 M30.72 0 C141.8 0, 252.87 0, 355.21 0 M355.21 0 C375.69 0, 385.93 10.24, 385.93 30.72 M355.21 0 C375.69 0, 385.93 10.24, 385.93 30.72 M385.93 30.72 C385.93 50.97, 385.93 71.22, 385.93 92.17 M385.93 30.72 C385.93 48.11, 385.93 65.49, 385.93 92.17 M385.93 92.17 C385.93 112.65, 375.69 122.89, 355.21 122.89 M385.93 92.17 C385.93 112.65, 375.69 122.89, 355.21 122.89 M355.21 122.89 C278.82 122.89, 202.43 122.89, 30.72 122.89 M355.21 122.89 C265.34 122.89, 175.46 122.89, 30.72 122.89 M30.72 122.89 C10.24 122.89, 0 112.65, 0 92.17 M30.72 122.89 C10.24 122.89, 0 112.65, 0 92.17 M0 92.17 C0 70.38, 0 48.59, 0 30.72 M0 92.17 C0 69.42, 0 46.67, 0 30.72 M0 30.72 C0 10.24, 10.24 0, 30.72 0 M0 30.72 C0 10.24, 10.24 0, 30.72 0" stroke="#1e1e1e" stroke-width="2" fill="none"></path></g><g stroke-linecap="round" transform="translate(546.2971736659524 656.9094179440815) rotate(0 192.96648963654684 61.4474296607998)"><path d="M30.72 0 C122.75 0, 214.78 0, 355.21 0 C375.69 0, 385.93 10.24, 385.93 30.72 C385.93 47.85, 385.93 64.97, 385.93 92.17 C385.93 112.65, 375.69 122.89, 355.21 122.89 C280.15 122.89, 205.1 122.89, 30.72 122.89 C10.24 122.89, 0 112.65, 0 92.17 C0 74.88, 0 57.58, 0 30.72 C0 10.24, 10.24 0, 30.72 0" stroke="none" stroke-width="0" fill="#1e1e1e"></path><path d="M30.72 0 C136.08 0, 241.44 0, 355.21 0 M30.72 0 C110.52 0, 190.32 0, 355.21 0 M355.21 0 C375.69 0, 385.93 10.24, 385.93 30.72 M355.21 0 C375.69 0, 385.93 10.24, 385.93 30.72 M385.93 30.72 C385.93 50.37, 385.93 70.02, 385.93 92.17 M385.93 30.72 C385.93 44.17, 385.93 57.61, 385.93 92.17 M385.93 92.17 C385.93 112.65, 375.69 122.89, 355.21 122.89 M385.93 92.17 C385.93 112.65, 375.69 122.89, 355.21 122.89 M355.21 122.89 C249.52 122.89, 143.83 122.89, 30.72 122.89 M355.21 122.89 C260.52 122.89, 165.82 122.89, 30.72 122.89 M30.72 122.89 C10.24 122.89, 0 112.65, 0 92.17 M30.72 122.89 C10.24 122.89, 0 112.65, 0 92.17 M0 92.17 C0 74.13, 0 56.09, 0 30.72 M0 92.17 C0 70.31, 0 48.44, 0 30.72 M0 30.72 C0 10.24, 10.24 0, 30.72 0 M0 30.72 C0 10.24, 10.24 0, 30.72 0" stroke="#1e1e1e" stroke-width="2" fill="none"></path></g><g stroke-linecap="round" transform="translate(546.2971736659524 904.8551867508174) rotate(0 192.96648963654684 61.4474296607998)"><path d="M30.72 0 C118.07 0, 205.42 0, 355.21 0 C375.69 0, 385.93 10.24, 385.93 30.72 C385.93 48.12, 385.93 65.52, 385.93 92.17 C385.93 112.65, 375.69 122.89, 355.21 122.89 C231.17 122.89, 107.13 122.89, 30.72 122.89 C10.24 122.89, 0 112.65, 0 92.17 C0 76.91, 0 61.65, 0 30.72 C0 10.24, 10.24 0, 30.72 0" stroke="none" stroke-width="0" fill="#1e1e1e"></path><path d="M30.72 0 C139.78 0, 248.84 0, 355.21 0 M30.72 0 C131.29 0, 231.86 0, 355.21 0 M355.21 0 C375.69 0, 385.93 10.24, 385.93 30.72 M355.21 0 C375.69 0, 385.93 10.24, 385.93 30.72 M385.93 30.72 C385.93 53.28, 385.93 75.84, 385.93 92.17 M385.93 30.72 C385.93 51.28, 385.93 71.84, 385.93 92.17 M385.93 92.17 C385.93 112.65, 375.69 122.89, 355.21 122.89 M385.93 92.17 C385.93 112.65, 375.69 122.89, 355.21 122.89 M355.21 122.89 C283.58 122.89, 211.96 122.89, 30.72 122.89 M355.21 122.89 C248.53 122.89, 141.85 122.89, 30.72 122.89 M30.72 122.89 C10.24 122.89, 0 112.65, 0 92.17 M30.72 122.89 C10.24 122.89, 0 112.65, 0 92.17 M0 92.17 C0 79.04, 0 65.91, 0 30.72 M0 92.17 C0 68.35, 0 44.53, 0 30.72 M0 30.72 C0 10.24, 10.24 0, 30.72 0 M0 30.72 C0 10.24, 10.24 0, 30.72 0" stroke="#1e1e1e" stroke-width="2" fill="none"></path></g><g stroke-linecap="round" transform="translate(546.2971736659524 1271.3837145520795) rotate(0 192.96648963654684 61.4474296607998)"><path d="M30.72 0 C101.95 0, 173.18 0, 355.21 0 C375.69 0, 385.93 10.24, 385.93 30.72 C385.93 46.51, 385.93 62.3, 385.93 92.17 C385.93 112.65, 375.69 122.89, 355.21 122.89 C275.87 122.89, 196.53 122.89, 30.72 122.89 C10.24 122.89, 0 112.65, 0 92.17 C0 68.71, 0 45.25, 0 30.72 C0 10.24, 10.24 0, 30.72 0" stroke="none" stroke-width="0" fill="#1e1e1e"></path><path d="M30.72 0 C141.47 0, 252.21 0, 355.21 0 M30.72 0 C121.87 0, 213.03 0, 355.21 0 M355.21 0 C375.69 0, 385.93 10.24, 385.93 30.72 M355.21 0 C375.69 0, 385.93 10.24, 385.93 30.72 M385.93 30.72 C385.93 53.46, 385.93 76.2, 385.93 92.17 M385.93 30.72 C385.93 49.59, 385.93 68.46, 385.93 92.17 M385.93 92.17 C385.93 112.65, 375.69 122.89, 355.21 122.89 M385.93 92.17 C385.93 112.65, 375.69 122.89, 355.21 122.89 M355.21 122.89 C276.27 122.89, 197.33 122.89, 30.72 122.89 M355.21 122.89 C266.68 122.89, 178.14 122.89, 30.72 122.89 M30.72 122.89 C10.24 122.89, 0 112.65, 0 92.17 M30.72 122.89 C10.24 122.89, 0 112.65, 0 92.17 M0 92.17 C0 71.63, 0 51.09, 0 30.72 M0 92.17 C0 71.46, 0 50.75, 0 30.72 M0 30.72 C0 10.24, 10.24 0, 30.72 0 M0 30.72 C0 10.24, 10.24 0, 30.72 0" stroke="#1e1e1e" stroke-width="2" fill="none"></path></g><g stroke-linecap="round"><g transform="translate(687.5652190898518 169.03654648649558) rotate(0 1.3764235378314424 116.9609875015318)"><path d="M0 0 C0.46 38.99, 2.29 194.93, 2.75 233.92 M0 0 C0.46 38.99, 2.29 194.93, 2.75 233.92" stroke="#1e1e1e" stroke-width="2" fill="none"></path></g><g transform="translate(687.5652190898518 169.03654648649558) rotate(0 1.3764235378314424 116.9609875015318)"><path d="M-6.07 210.53 C-2.93 218.87, 0.22 227.2, 2.75 233.92 M-6.07 210.53 C-3.57 217.16, -1.07 223.79, 2.75 233.92" stroke="#1e1e1e" stroke-width="2" fill="none"></path></g><g transform="translate(687.5652190898518 169.03654648649558) rotate(0 1.3764235378314424 116.9609875015318)"><path d="M11.03 210.33 C8.08 218.74, 5.13 227.14, 2.75 233.92 M11.03 210.33 C8.68 217.02, 6.34 223.71, 2.75 233.92" stroke="#1e1e1e" stroke-width="2" fill="none"></path></g></g><mask></mask><g stroke-linecap="round"><g transform="translate(785.2428075700941 407.3358743175843) rotate(0 -1.7532175873543565 -117.5992272786699)"><path d="M0 0 C-0.58 -39.2, -2.92 -196, -3.51 -235.2 M0 0 C-0.58 -39.2, -2.92 -196, -3.51 -235.2" stroke="#1e1e1e" stroke-width="2" fill="none"></path></g><g transform="translate(785.2428075700941 407.3358743175843) rotate(0 -1.7532175873543565 -117.5992272786699)"><path d="M5.39 -211.84 C2.59 -219.19, -0.21 -226.54, -3.51 -235.2 M5.39 -211.84 C2.52 -219.39, -0.36 -226.95, -3.51 -235.2" stroke="#1e1e1e" stroke-width="2" fill="none"></path></g><g transform="translate(785.2428075700941 407.3358743175843) rotate(0 -1.7532175873543565 -117.5992272786699)"><path d="M-11.71 -211.58 C-9.13 -219.01, -6.55 -226.44, -3.51 -235.2 M-11.71 -211.58 C-9.05 -219.22, -6.4 -226.86, -3.51 -235.2" stroke="#1e1e1e" stroke-width="2" fill="none"></path></g></g><mask></mask><g stroke-linecap="round"><g transform="translate(686.4404342958469 539.7618518831293) rotate(0 0 53.22441002801747)"><path d="M0 0 C0 17.74, 0 88.71, 0 106.45 M0 0 C0 17.74, 0 88.71, 0 106.45" stroke="#1e1e1e" stroke-width="2" fill="none"></path></g><g transform="translate(686.4404342958469 539.7618518831293) rotate(0 0 53.22441002801747)"><path d="M-8.55 82.96 C-5.87 90.32, -3.19 97.69, 0 106.45 M-8.55 82.96 C-6.06 89.79, -3.58 96.62, 0 106.45" stroke="#1e1e1e" stroke-width="2" fill="none"></path></g><g transform="translate(686.4404342958469 539.7618518831293) rotate(0 0 53.22441002801747)"><path d="M8.55 82.96 C5.87 90.32, 3.19 97.69, 0 106.45 M8.55 82.96 C6.06 89.79, 3.58 96.62, 0 106.45" stroke="#1e1e1e" stroke-width="2" fill="none"></path></g></g><mask></mask><g stroke-linecap="round"><g transform="translate(790.3070562015419 648.392414147668) rotate(0 -2.2737367544323206e-13 -53.54251887499299)"><path d="M0 0 C0 -17.85, 0 -89.24, 0 -107.09 M0 0 C0 -17.85, 0 -89.24, 0 -107.09" stroke="#1e1e1e" stroke-width="2" fill="none"></path></g><g transform="translate(790.3070562015419 648.392414147668) rotate(0 -2.2737367544323206e-13 -53.54251887499299)"><path d="M8.55 -83.59 C5.46 -92.09, 2.36 -100.6, 0 -107.09 M8.55 -83.59 C6.3 -89.77, 4.05 -95.94, 0 -107.09" stroke="#1e1e1e" stroke-width="2" fill="none"></path></g><g transform="translate(790.3070562015419 648.392414147668) rotate(0 -2.2737367544323206e-13 -53.54251887499299)"><path d="M-8.55 -83.59 C-5.46 -92.09, -2.36 -100.6, 0 -107.09 M-8.55 -83.59 C-6.3 -89.77, -4.05 -95.94, 0 -107.09" stroke="#1e1e1e" stroke-width="2" fill="none"></path></g></g><mask></mask><g stroke-linecap="round"><g transform="translate(686.4404342958469 787.9329817115452) rotate(0 0 53.22441002801747)"><path d="M0 0 C0 17.74, 0 88.71, 0 106.45 M0 0 C0 17.74, 0 88.71, 0 106.45" stroke="#1e1e1e" stroke-width="2" fill="none"></path></g><g transform="translate(686.4404342958469 787.9329817115452) rotate(0 0 53.22441002801747)"><path d="M-8.55 82.96 C-6.62 88.26, -4.69 93.57, 0 106.45 M-8.55 82.96 C-5.92 90.19, -3.29 97.42, 0 106.45" stroke="#1e1e1e" stroke-width="2" fill="none"></path></g><g transform="translate(686.4404342958469 787.9329817115452) rotate(0 0 53.22441002801747)"><path d="M8.55 82.96 C6.62 88.26, 4.69 93.57, 0 106.45 M8.55 82.96 C5.92 90.19, 3.29 97.42, 0 106.45" stroke="#1e1e1e" stroke-width="2" fill="none"></path></g></g><mask></mask><g stroke-linecap="round"><g transform="translate(790.3070562015419 896.5635439760838) rotate(0 -2.2737367544323206e-13 -53.54251887499299)"><path d="M0 0 C0 -17.85, 0 -89.24, 0 -107.09 M0 0 C0 -17.85, 0 -89.24, 0 -107.09" stroke="#1e1e1e" stroke-width="2" fill="none"></path></g><g transform="translate(790.3070562015419 896.5635439760838) rotate(0 -2.2737367544323206e-13 -53.54251887499299)"><path d="M8.55 -83.59 C5.33 -92.44, 2.11 -101.29, 0 -107.09 M8.55 -83.59 C5.24 -92.69, 1.93 -101.79, 0 -107.09" stroke="#1e1e1e" stroke-width="2" fill="none"></path></g><g transform="translate(790.3070562015419 896.5635439760838) rotate(0 -2.2737367544323206e-13 -53.54251887499299)"><path d="M-8.55 -83.59 C-5.33 -92.44, -2.11 -101.29, 0 -107.09 M-8.55 -83.59 C-5.24 -92.69, -1.93 -101.79, 0 -107.09" stroke="#1e1e1e" stroke-width="2" fill="none"></path></g></g><mask></mask><g stroke-linecap="round"><g transform="translate(686.4404342958469 1030.1928447932376) rotate(0 0 118.08275899452588)"><path d="M0 0 C0 39.36, 0 196.8, 0 236.17 M0 0 C0 39.36, 0 196.8, 0 236.17" stroke="#1e1e1e" stroke-width="2" fill="none"></path></g><g transform="translate(686.4404342958469 1030.1928447932376) rotate(0 0 118.08275899452588)"><path d="M-8.55 212.67 C-6.52 218.25, -4.49 223.83, 0 236.17 M-8.55 212.67 C-5.48 221.12, -2.4 229.56, 0 236.17" stroke="#1e1e1e" stroke-width="2" fill="none"></path></g><g transform="translate(686.4404342958469 1030.1928447932376) rotate(0 0 118.08275899452588)"><path d="M8.55 212.67 C6.52 218.25, 4.49 223.83, 0 236.17 M8.55 212.67 C5.48 221.12, 2.4 229.56, 0 236.17" stroke="#1e1e1e" stroke-width="2" fill="none"></path></g></g><mask></mask><g stroke-linecap="round"><g transform="translate(790.3070562015419 1271.1987384531387) rotate(0 -2.2737367544323206e-13 -118.7885098011891)"><path d="M0 0 C0 -39.6, 0 -197.98, 0 -237.58 M0 0 C0 -39.6, 0 -197.98, 0 -237.58" stroke="#1e1e1e" stroke-width="2" fill="none"></path></g><g transform="translate(790.3070562015419 1271.1987384531387) rotate(0 -2.2737367544323206e-13 -118.7885098011891)"><path d="M8.55 -214.08 C5.73 -221.83, 2.91 -229.57, 0 -237.58 M8.55 -214.08 C6.13 -220.73, 3.71 -227.38, 0 -237.58" stroke="#1e1e1e" stroke-width="2" fill="none"></path></g><g transform="translate(790.3070562015419 1271.1987384531387) rotate(0 -2.2737367544323206e-13 -118.7885098011891)"><path d="M-8.55 -214.08 C-5.73 -221.83, -2.91 -229.57, 0 -237.58 M-8.55 -214.08 C-6.13 -220.73, -3.71 -227.38, 0 -237.58" stroke="#1e1e1e" stroke-width="2" fill="none"></path></g></g><mask></mask><g stroke-linecap="round" transform="translate(830.4625895000167 558.624101476619) rotate(0 192.96648963654684 33.9781061301735)"><path d="M16.99 0 C98.4 0, 179.81 0, 368.94 0 C380.27 0, 385.93 5.66, 385.93 16.99 C385.93 26.55, 385.93 36.11, 385.93 50.97 C385.93 62.29, 380.27 67.96, 368.94 67.96 C294.05 67.96, 219.16 67.96, 16.99 67.96 C5.66 67.96, 0 62.29, 0 50.97 C0 43.56, 0 36.16, 0 16.99 C0 5.66, 5.66 0, 16.99 0" stroke="none" stroke-width="0" fill="#868e96"></path><path d="M16.99 0 C129.51 0, 242.04 0, 368.94 0 M16.99 0 C93.98 0, 170.97 0, 368.94 0 M368.94 0 C380.27 0, 385.93 5.66, 385.93 16.99 M368.94 0 C380.27 0, 385.93 5.66, 385.93 16.99 M385.93 16.99 C385.93 28.06, 385.93 39.12, 385.93 50.97 M385.93 16.99 C385.93 26.9, 385.93 36.82, 385.93 50.97 M385.93 50.97 C385.93 62.29, 380.27 67.96, 368.94 67.96 M385.93 50.97 C385.93 62.29, 380.27 67.96, 368.94 67.96 M368.94 67.96 C265.62 67.96, 162.3 67.96, 16.99 67.96 M368.94 67.96 C243.7 67.96, 118.46 67.96, 16.99 67.96 M16.99 67.96 C5.66 67.96, 0 62.29, 0 50.97 M16.99 67.96 C5.66 67.96, 0 62.29, 0 50.97 M0 50.97 C0 41.33, 0 31.69, 0 16.99 M0 50.97 C0 40.25, 0 29.53, 0 16.99 M0 16.99 C0 5.66, 5.66 0, 16.99 0 M0 16.99 C0 5.66, 5.66 0, 16.99 0" stroke="#343a40" stroke-width="2" fill="none"></path></g><g stroke-linecap="round" transform="translate(248.87070509296564 558.624101476619) rotate(0 192.96648963654684 33.9781061301735)"><path d="M16.99 0 C151.53 0, 286.07 0, 368.94 0 C380.27 0, 385.93 5.66, 385.93 16.99 C385.93 25.43, 385.93 33.87, 385.93 50.97 C385.93 62.29, 380.27 67.96, 368.94 67.96 C233.21 67.96, 97.47 67.96, 16.99 67.96 C5.66 67.96, 0 62.29, 0 50.97 C0 43.92, 0 36.87, 0 16.99 C0 5.66, 5.66 0, 16.99 0" stroke="none" stroke-width="0" fill="#868e96"></path><path d="M16.99 0 C146.2 0, 275.41 0, 368.94 0 M16.99 0 C134.74 0, 252.49 0, 368.94 0 M368.94 0 C380.27 0, 385.93 5.66, 385.93 16.99 M368.94 0 C380.27 0, 385.93 5.66, 385.93 16.99 M385.93 16.99 C385.93 24.49, 385.93 31.99, 385.93 50.97 M385.93 16.99 C385.93 28.16, 385.93 39.33, 385.93 50.97 M385.93 50.97 C385.93 62.29, 380.27 67.96, 368.94 67.96 M385.93 50.97 C385.93 62.29, 380.27 67.96, 368.94 67.96 M368.94 67.96 C293.73 67.96, 218.51 67.96, 16.99 67.96 M368.94 67.96 C232.52 67.96, 96.1 67.96, 16.99 67.96 M16.99 67.96 C5.66 67.96, 0 62.29, 0 50.97 M16.99 67.96 C5.66 67.96, 0 62.29, 0 50.97 M0 50.97 C0 41.82, 0 32.67, 0 16.99 M0 50.97 C0 38.28, 0 25.6, 0 16.99 M0 16.99 C0 5.66, 5.66 0, 16.99 0 M0 16.99 C0 5.66, 5.66 0, 16.99 0" stroke="#343a40" stroke-width="2" fill="none"></path></g><g stroke-linecap="round" transform="translate(830.4625895000167 808.6716513653794) rotate(0 192.96648963654684 33.9781061301735)"><path d="M16.99 0 C103.04 0, 189.1 0, 368.94 0 C380.27 0, 385.93 5.66, 385.93 16.99 C385.93 29.96, 385.93 42.93, 385.93 50.97 C385.93 62.29, 380.27 67.96, 368.94 67.96 C232.01 67.96, 95.07 67.96, 16.99 67.96 C5.66 67.96, 0 62.29, 0 50.97 C0 38.9, 0 26.84, 0 16.99 C0 5.66, 5.66 0, 16.99 0" stroke="none" stroke-width="0" fill="#868e96"></path><path d="M16.99 0 C147.24 0, 277.49 0, 368.94 0 M16.99 0 C125.07 0, 233.15 0, 368.94 0 M368.94 0 C380.27 0, 385.93 5.66, 385.93 16.99 M368.94 0 C380.27 0, 385.93 5.66, 385.93 16.99 M385.93 16.99 C385.93 25.26, 385.93 33.52, 385.93 50.97 M385.93 16.99 C385.93 26.26, 385.93 35.53, 385.93 50.97 M385.93 50.97 C385.93 62.29, 380.27 67.96, 368.94 67.96 M385.93 50.97 C385.93 62.29, 380.27 67.96, 368.94 67.96 M368.94 67.96 C251.3 67.96, 133.67 67.96, 16.99 67.96 M368.94 67.96 C250.33 67.96, 131.72 67.96, 16.99 67.96 M16.99 67.96 C5.66 67.96, 0 62.29, 0 50.97 M16.99 67.96 C5.66 67.96, 0 62.29, 0 50.97 M0 50.97 C0 43.51, 0 36.05, 0 16.99 M0 50.97 C0 41.5, 0 32.03, 0 16.99 M0 16.99 C0 5.66, 5.66 0, 16.99 0 M0 16.99 C0 5.66, 5.66 0, 16.99 0" stroke="#343a40" stroke-width="2" fill="none"></path></g><g stroke-linecap="round" transform="translate(248.87070509296564 808.6716513653794) rotate(0 192.96648963654684 33.9781061301735)"><path d="M16.99 0 C155.7 0, 294.41 0, 368.94 0 C380.27 0, 385.93 5.66, 385.93 16.99 C385.93 24.45, 385.93 31.91, 385.93 50.97 C385.93 62.29, 380.27 67.96, 368.94 67.96 C253.95 67.96, 138.95 67.96, 16.99 67.96 C5.66 67.96, 0 62.29, 0 50.97 C0 43.4, 0 35.84, 0 16.99 C0 5.66, 5.66 0, 16.99 0" stroke="none" stroke-width="0" fill="#868e96"></path><path d="M16.99 0 C127.11 0, 237.23 0, 368.94 0 M16.99 0 C96.36 0, 175.72 0, 368.94 0 M368.94 0 C380.27 0, 385.93 5.66, 385.93 16.99 M368.94 0 C380.27 0, 385.93 5.66, 385.93 16.99 M385.93 16.99 C385.93 24.39, 385.93 31.79, 385.93 50.97 M385.93 16.99 C385.93 29.08, 385.93 41.17, 385.93 50.97 M385.93 50.97 C385.93 62.29, 380.27 67.96, 368.94 67.96 M385.93 50.97 C385.93 62.29, 380.27 67.96, 368.94 67.96 M368.94 67.96 C266.3 67.96, 163.65 67.96, 16.99 67.96 M368.94 67.96 C278.61 67.96, 188.27 67.96, 16.99 67.96 M16.99 67.96 C5.66 67.96, 0 62.29, 0 50.97 M16.99 67.96 C5.66 67.96, 0 62.29, 0 50.97 M0 50.97 C0 42.3, 0 33.64, 0 16.99 M0 50.97 C0 41.35, 0 31.73, 0 16.99 M0 16.99 C0 5.66, 5.66 0, 16.99 0 M0 16.99 C0 5.66, 5.66 0, 16.99 0" stroke="#343a40" stroke-width="2" fill="none"></path></g><g stroke-linecap="round" transform="translate(830.4625895000167 1118.0437106531483) rotate(0 192.96648963654684 33.9781061301735)"><path d="M16.99 0 C88.31 0, 159.63 0, 368.94 0 C380.27 0, 385.93 5.66, 385.93 16.99 C385.93 29.18, 385.93 41.36, 385.93 50.97 C385.93 62.29, 380.27 67.96, 368.94 67.96 C293.81 67.96, 218.68 67.96, 16.99 67.96 C5.66 67.96, 0 62.29, 0 50.97 C0 41.95, 0 32.93, 0 16.99 C0 5.66, 5.66 0, 16.99 0" stroke="none" stroke-width="0" fill="#868e96"></path><path d="M16.99 0 C127.08 0, 237.16 0, 368.94 0 M16.99 0 C155.83 0, 294.67 0, 368.94 0 M368.94 0 C380.27 0, 385.93 5.66, 385.93 16.99 M368.94 0 C380.27 0, 385.93 5.66, 385.93 16.99 M385.93 16.99 C385.93 24.37, 385.93 31.76, 385.93 50.97 M385.93 16.99 C385.93 25.81, 385.93 34.64, 385.93 50.97 M385.93 50.97 C385.93 62.29, 380.27 67.96, 368.94 67.96 M385.93 50.97 C385.93 62.29, 380.27 67.96, 368.94 67.96 M368.94 67.96 C232.9 67.96, 96.86 67.96, 16.99 67.96 M368.94 67.96 C233.97 67.96, 98.99 67.96, 16.99 67.96 M16.99 67.96 C5.66 67.96, 0 62.29, 0 50.97 M16.99 67.96 C5.66 67.96, 0 62.29, 0 50.97 M0 50.97 C0 41.6, 0 32.23, 0 16.99 M0 50.97 C0 42.24, 0 33.51, 0 16.99 M0 16.99 C0 5.66, 5.66 0, 16.99 0 M0 16.99 C0 5.66, 5.66 0, 16.99 0" stroke="#343a40" stroke-width="2" fill="none"></path></g><g stroke-linecap="round" transform="translate(248.87070509296564 1118.0437106531483) rotate(0 192.96648963654684 33.9781061301735)"><path d="M16.99 0 C152.1 0, 287.21 0, 368.94 0 C380.27 0, 385.93 5.66, 385.93 16.99 C385.93 29.18, 385.93 41.37, 385.93 50.97 C385.93 62.29, 380.27 67.96, 368.94 67.96 C290.82 67.96, 212.69 67.96, 16.99 67.96 C5.66 67.96, 0 62.29, 0 50.97 C0 42.96, 0 34.96, 0 16.99 C0 5.66, 5.66 0, 16.99 0" stroke="none" stroke-width="0" fill="#868e96"></path><path d="M16.99 0 C146.09 0, 275.18 0, 368.94 0 M16.99 0 C100.54 0, 184.08 0, 368.94 0 M368.94 0 C380.27 0, 385.93 5.66, 385.93 16.99 M368.94 0 C380.27 0, 385.93 5.66, 385.93 16.99 M385.93 16.99 C385.93 24.13, 385.93 31.28, 385.93 50.97 M385.93 16.99 C385.93 27.83, 385.93 38.66, 385.93 50.97 M385.93 50.97 C385.93 62.29, 380.27 67.96, 368.94 67.96 M385.93 50.97 C385.93 62.29, 380.27 67.96, 368.94 67.96 M368.94 67.96 C252.59 67.96, 136.24 67.96, 16.99 67.96 M368.94 67.96 C283.83 67.96, 198.71 67.96, 16.99 67.96 M16.99 67.96 C5.66 67.96, 0 62.29, 0 50.97 M16.99 67.96 C5.66 67.96, 0 62.29, 0 50.97 M0 50.97 C0 43.88, 0 36.8, 0 16.99 M0 50.97 C0 41.04, 0 31.12, 0 16.99 M0 16.99 C0 5.66, 5.66 0, 16.99 0 M0 16.99 C0 5.66, 5.66 0, 16.99 0" stroke="#343a40" stroke-width="2" fill="none"></path></g><g stroke-linecap="round" transform="translate(830.4625895000167 256.07528262315395) rotate(0 192.96648963654684 33.9781061301735)"><path d="M16.99 0 C101.76 0, 186.53 0, 368.94 0 C380.27 0, 385.93 5.66, 385.93 16.99 C385.93 28.7, 385.93 40.41, 385.93 50.97 C385.93 62.29, 380.27 67.96, 368.94 67.96 C288.09 67.96, 207.23 67.96, 16.99 67.96 C5.66 67.96, 0 62.29, 0 50.97 C0 41.28, 0 31.58, 0 16.99 C0 5.66, 5.66 0, 16.99 0" stroke="none" stroke-width="0" fill="#868e96"></path><path d="M16.99 0 C157.28 0, 297.57 0, 368.94 0 M16.99 0 C122.33 0, 227.67 0, 368.94 0 M368.94 0 C380.27 0, 385.93 5.66, 385.93 16.99 M368.94 0 C380.27 0, 385.93 5.66, 385.93 16.99 M385.93 16.99 C385.93 24.03, 385.93 31.07, 385.93 50.97 M385.93 16.99 C385.93 24.62, 385.93 32.25, 385.93 50.97 M385.93 50.97 C385.93 62.29, 380.27 67.96, 368.94 67.96 M385.93 50.97 C385.93 62.29, 380.27 67.96, 368.94 67.96 M368.94 67.96 C265.68 67.96, 162.42 67.96, 16.99 67.96 M368.94 67.96 C282.18 67.96, 195.41 67.96, 16.99 67.96 M16.99 67.96 C5.66 67.96, 0 62.29, 0 50.97 M16.99 67.96 C5.66 67.96, 0 62.29, 0 50.97 M0 50.97 C0 38.95, 0 26.93, 0 16.99 M0 50.97 C0 43.99, 0 37.01, 0 16.99 M0 16.99 C0 5.66, 5.66 0, 16.99 0 M0 16.99 C0 5.66, 5.66 0, 16.99 0" stroke="#343a40" stroke-width="2" fill="none"></path></g><g stroke-linecap="round" transform="translate(248.87070509296564 256.07528262315395) rotate(0 192.96648963654684 33.9781061301735)"><path d="M16.99 0 C91.79 0, 166.58 0, 368.94 0 C380.27 0, 385.93 5.66, 385.93 16.99 C385.93 27.52, 385.93 38.06, 385.93 50.97 C385.93 62.29, 380.27 67.96, 368.94 67.96 C275.36 67.96, 181.78 67.96, 16.99 67.96 C5.66 67.96, 0 62.29, 0 50.97 C0 38.42, 0 25.86, 0 16.99 C0 5.66, 5.66 0, 16.99 0" stroke="none" stroke-width="0" fill="#868e96"></path><path d="M16.99 0 C89.29 0, 161.59 0, 368.94 0 M16.99 0 C140.28 0, 263.56 0, 368.94 0 M368.94 0 C380.27 0, 385.93 5.66, 385.93 16.99 M368.94 0 C380.27 0, 385.93 5.66, 385.93 16.99 M385.93 16.99 C385.93 27.46, 385.93 37.93, 385.93 50.97 M385.93 16.99 C385.93 24.7, 385.93 32.41, 385.93 50.97 M385.93 50.97 C385.93 62.29, 380.27 67.96, 368.94 67.96 M385.93 50.97 C385.93 62.29, 380.27 67.96, 368.94 67.96 M368.94 67.96 C281.21 67.96, 193.47 67.96, 16.99 67.96 M368.94 67.96 C296.42 67.96, 223.9 67.96, 16.99 67.96 M16.99 67.96 C5.66 67.96, 0 62.29, 0 50.97 M16.99 67.96 C5.66 67.96, 0 62.29, 0 50.97 M0 50.97 C0 43.08, 0 35.2, 0 16.99 M0 50.97 C0 39.35, 0 27.74, 0 16.99 M0 16.99 C0 5.66, 5.66 0, 16.99 0 M0 16.99 C0 5.66, 5.66 0, 16.99 0" stroke="#343a40" stroke-width="2" fill="none"></path></g><g transform="translate(645.2683701678493 83.59187800373843) rotate(0 95.45196533203125 17.5)"><text x="95.45196533203125" y="24.528" font-family="Virgil, Segoe UI Emoji" font-size="28px" fill="#ffffff" text-anchor="middle" style="white-space: pre;" direction="ltr" dominant-baseline="alphabetic">Compute Node</text></g><g transform="translate(693.6977067157009 455.3430602384708) rotate(0 51.86997985839844 17.5)"><text x="51.86997985839844" y="24.528" font-family="Virgil, Segoe UI Emoji" font-size="28px" fill="#ffffff" text-anchor="middle" style="white-space: pre;" direction="ltr" dominant-baseline="alphabetic">Mixer 3</text></g><g transform="translate(693.5737061663845 704.0917495094711) rotate(0 52.303977966308594 17.5)"><text x="52.303977966308594" y="24.528" font-family="Virgil, Segoe UI Emoji" font-size="28px" fill="#ffffff" text-anchor="middle" style="white-space: pre;" direction="ltr" dominant-baseline="alphabetic">Mixer 2</text></g><g transform="translate(695.3377061053493 951.8551173600315) rotate(0 46.129981994628906 17.5)"><text x="46.129981994628906" y="24.528" font-family="Virgil, Segoe UI Emoji" font-size="28px" fill="#ffffff" text-anchor="middle" style="white-space: pre;" direction="ltr" dominant-baseline="alphabetic">Mixer 1</text></g><g transform="translate(709.5411896868923 1320.1229318388562) rotate(0 31.275985717773438 17.5)"><text x="31.275985717773438" y="24.528" font-family="Virgil, Segoe UI Emoji" font-size="28px" fill="#ffffff" text-anchor="middle" style="white-space: pre;" direction="ltr" dominant-baseline="alphabetic">User</text></g><g transform="translate(331.5729510548849 272.23878522385553) rotate(0 98.88195037841797 17.5)"><text x="98.88195037841797" y="24.528" font-family="Virgil, Segoe UI Emoji" font-size="28px" fill="#ffffff" text-anchor="middle" style="white-space: pre;" direction="ltr" dominant-baseline="alphabetic">Send Response</text></g><g transform="translate(312.91727325947477 572.5510825606391) rotate(0 121.86994171142578 35)"><text x="121.86994171142578" y="24.528" font-family="Virgil, Segoe UI Emoji" font-size="28px" fill="#ffffff" text-anchor="middle" style="white-space: pre;" direction="ltr" dominant-baseline="alphabetic">Forward Response</text><text x="121.86994171142578" y="59.528" font-family="Virgil, Segoe UI Emoji" font-size="28px" fill="#ffffff" text-anchor="middle" style="white-space: pre;" direction="ltr" dominant-baseline="alphabetic"></text></g><g transform="translate(312.91727325947477 824.9742233787977) rotate(0 121.86994171142578 17.5)"><text x="121.86994171142578" y="24.528" font-family="Virgil, Segoe UI Emoji" font-size="28px" fill="#ffffff" text-anchor="middle" style="white-space: pre;" direction="ltr" dominant-baseline="alphabetic">Forward Response</text></g><g transform="translate(318.23490021259977 1136.2416202919906) rotate(0 120.77794647216797 17.5)"><text x="120.77794647216797" y="24.528" font-family="Virgil, Segoe UI Emoji" font-size="28px" fill="#ffffff" text-anchor="middle" style="white-space: pre;" direction="ltr" dominant-baseline="alphabetic">Return Response </text></g><g transform="translate(853.4009158769836 272.23878522385553) rotate(0 154.76992797851562 17.5)"><text x="154.76992797851562" y="24.528" font-family="Virgil, Segoe UI Emoji" font-size="28px" fill="#ffffff" text-anchor="middle" style="white-space: pre;" direction="ltr" dominant-baseline="alphabetic">Forward Mixed Queries</text></g><g transform="translate(871.311667219757 574.0738367760425) rotate(0 133.0979461669922 17.5)"><text x="133.0979461669922" y="24.528" font-family="Virgil, Segoe UI Emoji" font-size="28px" fill="#ffffff" text-anchor="middle" style="white-space: pre;" direction="ltr" dominant-baseline="alphabetic">Mix With Challenges</text></g><g transform="translate(871.311667219757 824.9742233787977) rotate(0 133.0979461669922 17.5)"><text x="133.0979461669922" y="24.528" font-family="Virgil, Segoe UI Emoji" font-size="28px" fill="#ffffff" text-anchor="middle" style="white-space: pre;" direction="ltr" dominant-baseline="alphabetic">Mix With Challenges</text></g><g transform="translate(940.4340579668274 1136.2416202919906) rotate(0 75.73995971679688 17.5)"><text x="75.73995971679688" y="24.528" font-family="Virgil, Segoe UI Emoji" font-size="28px" fill="#ffffff" text-anchor="middle" style="white-space: pre;" direction="ltr" dominant-baseline="alphabetic">Send Query</text></g><g transform="translate(45.136157058816934 132.4270898583536) rotate(0 95.45196533203125 17.5)"><text x="95.45196533203125" y="24.528" font-family="Virgil, Segoe UI Emoji" font-size="28px" fill="#1e1e1e" text-anchor="middle" style="white-space: pre;" direction="ltr" dominant-baseline="alphabetic">Compute Node</text></g><g transform="translate(83.2332390135839 690.8649045358391) rotate(0 53.70397186279297 35)"><text x="0" y="24.528" font-family="Virgil, Segoe UI Emoji" font-size="28px" fill="#8067ff" text-anchor="start" style="white-space: pre;" direction="ltr" dominant-baseline="alphabetic">Mixer</text><text x="0" y="59.528" font-family="Virgil, Segoe UI Emoji" font-size="28px" fill="#8067ff" text-anchor="start" style="white-space: pre;" direction="ltr" dominant-baseline="alphabetic">Network</text></g><g transform="translate(95.56272967520499 1316.422141335864) rotate(0 38.87798309326172 17.5)"><text x="38.87798309326172" y="24.528" font-family="Virgil, Segoe UI Emoji" font-size="28px" fill="#1e1e1e" text-anchor="middle" style="white-space: pre;" direction="ltr" dominant-baseline="alphabetic">Users</text></g><g stroke-linecap="round" transform="translate(10 10) rotate(0 672.9260959213589 175.55036341764958)"><path d="M32 0 C416.66 -3.81, 800.58 -3.93, 1313.85 0 M1313.85 0 C1334.55 -0.3, 1344.09 11.76, 1345.85 32 M1345.85 32 C1344.31 141.08, 1344.85 252.43, 1345.85 319.1 M1345.85 319.1 C1347.43 338.55, 1334.85 349.61, 1313.85 351.1 M1313.85 351.1 C844.18 355.15, 374.92 355.64, 32 351.1 M32 351.1 C9.5 350.02, 0.15 341.25, 0 319.1 M0 319.1 C1.87 247.32, 0.52 179.56, 0 32 M0 32 C1.06 8.9, 8.74 -1.27, 32 0" stroke="#1e1e1e" stroke-width="1.5" fill="none" stroke-dasharray="8 9"></path></g><g stroke-linecap="round" transform="translate(10 392.3226859472659) rotate(0 672.9260959213589 405.97452864862885)"><path d="M32 0 C409.03 3.77, 786.1 3.94, 1313.85 0 M1313.85 0 C1337.18 1.02, 1346.78 8.93, 1345.85 32 M1345.85 32 C1347.06 318.79, 1346.4 604.38, 1345.85 779.95 M1345.85 779.95 C1346.3 803.13, 1335.09 812.06, 1313.85 811.95 M1313.85 811.95 C968 808.94, 621.67 808.4, 32 811.95 M32 811.95 C11.49 812.56, -1.5 802.51, 0 779.95 M0 779.95 C0.87 514.7, 1.48 250.57, 0 32 M0 32 C-1.99 10.22, 12.31 -0.55, 32 0" stroke="#8067ff" stroke-width="1.5" fill="none" stroke-dasharray="8 9"></path></g></svg>